<svg width="180" height="180" fill="none" xmlns="http://www.w3.org/2000/svg"><path opacity="0.838" fill-rule="evenodd" clip-rule="evenodd" d="M47.5 6.5h3v17h13v-17h3v17h12v-17h3v17h12c.2343-7.9668-.2343-14.63349 0-17 .5-.00001 2.0001.00002 2.5001 0 .2343 2.36651.2656 9.0332.4999 17h13v-17h3v17h11v-17h4v17c6.009-.1662 12.009.0005 18 .5 4.285 1.7286 6.785 4.8953 7.5 9.5.499 4.6548.666 9.3215.5 14h17v4h-17v12h17v4h-17v11h17v4h-17v12h17c.17 1.3221-.163 2.4887-1 3.5-5.323.4994-10.656.666-16 .5v11h17v4h-17v11h17v4h-17c0 21.5-6 25-26 26 .166 5.676-.5 12-.588 18h-3c0-6.5-.578-12.324-.412-18h-11c.166 5.676.499 12.343 0 18H110c0-1.5-.5-7-.5-18h-13c0 5.796-.0781 15.937-.4999 18H93.5c-.4218-2.063 0-12.204 0-18h-12v18h-3v-18h-12v18h-3v-18h-13v18h-3c0-6 .0001-12 .0001-18-22.5 0-26-4.31-26-26H5.50003v-4H21.5v-11H5.50003v-4H21.5V98h-16c.00006-1.5-.00002-2 .00003-3.5H21.5v-12H5.50003v-4H21.5v-11H5.50003v-4H21.5v-12H5.50003v-4H21.5c.1958-16.2403 6.0001-24 26-24v-17Zm0 36c26.6687-.1666 53.335 0 80 .5 3.5.0656 5.096 3 5.5 6.5.499 4.3206.666 8.6539.5 13h-92c-.1658-4.6785.0008-9.3452.5-14 .3218-3 2.0001-6 5.5-6Zm-6 23h3.0001c7.6171 13.5708 15.4504 29.2374 22.5 43H41.5v-43Zm55 0h9c-6.9321 13.4393-16.0987 29.7727-23.4999 43h-10C80.423 94.7433 88.9229 79.7433 96.5 65.5Zm13 0h24c.167 14.004.5 28.504 0 42.5-8.097-13.861-16.43-28.361-24-42.5Zm-68 46h92c.166 5.676-.001 11.343-.5 17-.273 1.829-1.107 3.329-2.5 4.5-14.243 1.151-28.577 1.651-43 1.5-13.6667-.167-27.3333-.333-41-.5-2.0524-.93-3.5524-2.43-4.5-4.5-.4995-5.991-.6662-11.991-.5-18Z" fill="black"/>
    <style>
        path { fill: #000; }
        @media (prefers-color-scheme: dark) {
            path { fill: #FFF; }
        }
    </style>
</svg>