<?xml version="1.0" encoding="utf-8"?><!--Generator: Adobe Illustrator 28.3.0, SVG Export Plug-In . SVG Version: 6.00 Build 0)--><svg version="1.1" id="Capa_1" xmlns="http://www.w3.org/2000/svg" x="0px" y="0px" viewBox="0 0 346.42 288.47" style="enable-background:new 0 0 346.42 288.47" xml:space="preserve"><style>.st0{fill:#020203;}
	.st1{fill:#FFFFFF;}
	.st2{fill:#020203;stroke:#020203;stroke-miterlimit:10;}
	.st3{fill:#151C32;}</style><path d="M40 245v-25c0-9 6-14 16-14h28V102c0-19 14-33 32-33s32 14 32 33v104h28c10 0 16 5 17 15v24H40zm76-135c8 0 14-7 14-15s-6-14-14-14-14 6-14 14 6 15 14 15zM232 288H0v-25c1-5 5-8 10-9h208c11 0 14 4 14 15v19zM291 130c-4 1-8-1-11-6l-18-26c-3-3-3-5-2-9l15-32c1-3 3-5 7-5l34-4c4 0 6 1 9 4l20 28 1 7h-8l-23-10c-4-2-7-1-9 4l-7 15c-2 5-1 8 4 10l23 11 5 5c-2 2-4 4-6 4l-34 4z"/><path d="M154 97c-5-27-28-42-54-33l2-4 32-46c11-15 29-18 44-8 15 11 19 29 9 44l-33 47zm-6-67c0 8 7 14 15 14 7 0 14-7 14-14 0-8-7-15-15-15s-14 7-14 15z"/><path d="M184 65c13-14 21-29 12-49l5 2 47 19c15 6 21 20 16 33-6 14-20 19-35 14l-45-19z"/></svg>