<?xml version="1.0" encoding="utf-8"?><!--Generator: Adobe Illustrator 28.3.0, SVG Export Plug-In . SVG Version: 6.00 Build 0)--><svg version="1.1" id="Capa_1" xmlns="http://www.w3.org/2000/svg" x="0px" y="0px" viewBox="0 0 445.21 345.23" style="enable-background:new 0 0 445.21 345.23" xml:space="preserve"><style>.st0{fill:#020203;}
	.st1{fill:#FFFFFF;}
	.st2{fill:#020203;stroke:#020203;stroke-miterlimit:10;}
	.st3{fill:#151C32;}</style><path d="M0 204v-4l26-11c3-1 6-4 6-7 1-18 2-36-20-43-2-1-4-5-4-7s3-4 5-5l15-5a80 80 0 0 1-14-55c2-21 12-31 33-34L254 4c12-2 24-6 34-3 48 13 96 28 144 43 2 0 5 3 5 4 0 3-2 6-4 7-19 7-20 22-21 39 0 8 3 12 11 14s15 6 22 9v4l-22 5c14 30 12 57-8 82l9 8c0 1-3 6-5 6-19 7-20 22-20 38 0 8 2 13 11 15l22 9-1 3-7 2-229 55c-5 2-12 2-18 0L33 297c-19-5-28-17-31-35l-2-9v-21l11-25-11-3zm202-47v-50c-1-2-4-5-7-6L47 53c-9-3-14-1-17 9-4 14-4 28 3 41 2 5 8 9 14 11l64 18 91 25zm43 84 157-45c4-1 9-5 11-9 6-13 6-27 3-41-3-10-8-13-19-10l-50 17-102 33v55zm-57 83v-49c0-3-4-6-6-7L34 220c-9-3-15-1-18 8-4 14-3 29 3 42 2 4 9 9 14 11l82 23 73 20zm216-215 3-46-197 41v53l194-48zm-11 121-108 23c-13 2-26 7-39 10l-42 6c-3 1-7 4-7 6v49l193-49 3-45zM42 192l193 48v-43c1-7-1-10-9-12-44-8-88-18-131-27l-57-11 4 45z"/></svg>