<?xml version="1.0" encoding="utf-8"?><!--Generator: Adobe Illustrator 28.3.0, SVG Export Plug-In . SVG Version: 6.00 Build 0)--><svg version="1.1" id="Capa_1" xmlns="http://www.w3.org/2000/svg" x="0px" y="0px" viewBox="0 0 455.19 266.79" style="enable-background:new 0 0 455.19 266.79" xml:space="preserve"><style>.st0{fill:#020203;}
	.st1{fill:#FFFFFF;}
	.st2{fill:#020203;stroke:#020203;stroke-miterlimit:10;}
	.st3{fill:#151C32;}</style><path d="m360 264-55-50c-6-6-15-10-24-10l-102-1c-19 0-27-7-27-27V27c1-18 8-27 25-27h255c16 0 23 8 23 25v154c0 16-8 24-24 24h-40c-11-1-16 5-19 15l-12 46z"/><path d="M141 88v89c1 21 13 38 31 41 7 1 14 0 21 2-2 2-5 3-7 3h-56c-17-2-29 4-40 17-7 9-16 17-26 27l-14-31c-4-10-9-14-20-13-5 0-16 1-21-1-5-3-8-8-8-13V102c0-4 8-13 12-13l128-1z"/></svg>