<?xml version="1.0" encoding="utf-8"?><!--Generator: Adobe Illustrator 28.3.0, SVG Export Plug-In . SVG Version: 6.00 Build 0)--><svg version="1.1" id="Capa_1" xmlns="http://www.w3.org/2000/svg" x="0px" y="0px" viewBox="0 0 329.92 285.71" style="enable-background:new 0 0 329.92 285.71" xml:space="preserve"><style>.st0{fill:#020203;}
	.st1{fill:#FFFFFF;}
	.st2{fill:#020203;stroke:#020203;stroke-miterlimit:10;}
	.st3{fill:#151C32;}</style><path class="st3" d="m191 9 19 9-11 26A115 115 0 0 0 57 220c34 37 88 48 134 27 41-20 76-70 62-134l27-5c4 15 5 29 4 44-4 64-50 108-110 130-9 3-36 5-50 3C64 275 17 234 3 175c-1-6-4-39-2-51C9 72 37 34 85 13c11-5 22-7 34-10l24-3c27 0 38 6 48 9z"/><path class="st3" d="m134 234-78-95 38-44 38 53C187 84 249 31 330 3a483 483 0 0 0-196 231z"/></svg>