<?xml version="1.0" encoding="utf-8"?><!--Generator: Adobe Illustrator 28.3.0, SVG Export Plug-In . SVG Version: 6.00 Build 0)--><svg version="1.1" id="Capa_1" xmlns="http://www.w3.org/2000/svg" x="0px" y="0px" viewBox="0 0 413.46 306.51" style="enable-background:new 0 0 413.46 306.51" xml:space="preserve"><style>.st0{fill:#020203;}
	.st1{fill:#FFFFFF;}
	.st2{fill:#020203;stroke:#020203;stroke-miterlimit:10;}
	.st3{fill:#151C32;}</style><path class="st1" d="M266 20h-13c-4 0-6-1-7-4V5c1-4 3-5 7-5h47c4 0 7 2 7 6v8c0 4-3 6-8 6h-12v21c0 3 1 4 3 4a127 127 0 0 1 82 40l2 2 9-7-7-8c-2-3-2-5 0-8l6-4c3-1 5 0 7 2l23 29c2 3 2 5-1 8l-5 4c-3 1-5 0-6-2l-7-8-9 7 2 3a131 131 0 0 1-187 179l-5-4c-3-4-7-5-12-5a4327 4327 0 0 1-77-2c-4-2-5-6-4-10s4-6 8-7h4l80-1c3 0 5 1 7 3 28 26 61 35 98 28a111 111 0 0 0 17-213c-43-15-82-7-115 24l-6 2h-82c-7 0-12-6-11-12 1-4 4-7 8-8h78l5-2c20-17 44-27 71-30 2 0 3-1 3-3V20z"/><path class="st1" d="m149 209-4-24H11c-9 0-14-8-10-15 2-3 6-5 10-5h134l4-24H68c-6 0-11-4-11-10 0-5 4-9 9-10h113c-19 36-19 72 0 108H68c-4 0-7-1-9-4s-2-6-1-10c2-3 5-5 9-6h82zM264 189l20-20 41-40c5-5 11-5 15-1s4 10-1 15l-67 65c-5 5-11 6-16 1l-42-40c-5-5-5-10-1-15 4-4 10-4 14 0l32 30 5 5z"/></svg>