<?xml version="1.0" encoding="utf-8"?><!--Generator: Adobe Illustrator 28.3.0, SVG Export Plug-In . SVG Version: 6.00 Build 0)--><svg version="1.1" id="Capa_1" xmlns="http://www.w3.org/2000/svg" x="0px" y="0px" viewBox="0 0 526.31 294.84" style="enable-background:new 0 0 526.31 294.84" xml:space="preserve"><style>.st0{fill:#020203;}
	.st1{fill:#FFFFFF;}
	.st2{fill:#020203;stroke:#020203;stroke-miterlimit:10;}
	.st3{fill:#151C32;}</style><path class="st0" d="m526 205-1-6c-5-33-24-55-54-68-12-6-25-8-39-7-2 0-2-1-3-3-5-15-13-29-25-41a111 111 0 0 0-80-32c-7 0-14 0-20 2-3 1-5 0-6-2l-10-11A122 122 0 0 0 180 2a119 119 0 0 0-92 72c-6 15-8 30-7 46 0 3-1 4-4 5-24 4-44 15-60 34a80 80 0 0 0-17 60c-1 2 1 3 1 4l3 9 3 9v1c2 3 2 6 5 9l2 3c19 27 45 40 77 41h340l10-1c20-1 39-8 55-21l15-16 4-7 3-8 1-1 3-9 3-9c2-6 1-12 1-18zm-208-25h-25c-4 0-4 0-4 4v66c0 2 0 3-3 3h-57c-2 0-3-1-3-3v-67c0-3-1-3-3-3h-28l13-16 48-57c1-2 2-2 4 0l60 72-2 1z"/></svg>