<?xml version="1.0" encoding="utf-8"?><!--Generator: Adobe Illustrator 28.3.0, SVG Export Plug-In . SVG Version: 6.00 Build 0)--><svg version="1.1" id="Capa_1" xmlns="http://www.w3.org/2000/svg" x="0px" y="0px" viewBox="0 0 296.92 299.48" style="enable-background:new 0 0 296.92 299.48" xml:space="preserve"><style>.st0{fill:#020203;}
	.st1{fill:#FFFFFF;}
	.st2{fill:#020203;stroke:#020203;stroke-miterlimit:10;}
	.st3{fill:#151C32;}</style><path class="st1" d="m82 229-18 5v-56l-1-3c0-2-2-3-3-5l-3 4v4l-1 58-2 7c-9 9-12 19-12 31v23c-8-1-12-5-13-12V89c0-2 1-6-3-7-4 0-2 5-3 7v80l-1 8c-2 5-8 7-13 6-5-2-9-6-9-12v-33l1-50c0-20 11-31 30-31 10 0 8-2 12 8l11 28-1-7c-1-5-1-10 3-16 1-1 0-4-1-6l-3-6h14l1 1c-4 6-3 11 0 17 2 3 0 7 0 10l-1 7 3-5 10-27c1-3 2-4 5-4l15 1c12 3 20 13 20 25v24l6-3 18-11c7-4 14-3 17 3 4 6 2 12-5 16l-39 25c-10 6-19 1-19-11V87l-3-5-3 5v89l-3 9c-12 13-13 28-6 44z"/><path class="st1" d="M79 299H55c1-12 0-23 2-35 2-11 14-20 26-20h65c14 0 24 8 28 24l2-3c4-13 13-21 27-21h65c13 0 25 10 26 24l1 31h-23v-25l-3-4c-1 1-3 2-3 4v21c0 2 0 5-3 4h-60v-26l-2-3-3 3v26h-47v-26l-3-4-3 4v26H85v-14l-1-12-2-4-3 4v26zM121 149l17-11 7-1h128c5 0 7-1 6-6V31c0-5 0-6-5-6H125v38l-11-11c-2-1-2-3-2-5V22c0-8 2-9 9-9h161c8 0 10 1 10 9v118c0 7-2 9-9 9H121zM237 187a24 24 0 1 1-24 24c0-14 10-24 24-24zM116 235c-14 0-24-11-24-24 0-14 11-25 24-25a24 24 0 1 1 0 49zM60 48c-13 0-24-11-24-24S47 0 60 0s24 11 24 24c0 14-11 25-24 24z"/><path class="st1" d="m197 86 3 7 5-2 20-10c3-2 6-2 9 0l30 23c3 3 4 7 1 10s-6 3-9 0l-23-18c-3-3-6-3-10-1l-21 11c-6 3-9 2-12-4l-1-3c-2-3-2-6 2-9l6-4zM150 66l-5-4-11-17c-2-4-2-8 1-10 4-2 7 0 9 3l7 11c2 3 4 3 7 3a426 426 0 0 1 21-3c4 1 4 3 1 6-8 9-19 8-30 11zM164 82l28-22c3-3 7-3 9 0 3 4 2 7-1 9l-28 22-8-9z"/></svg>