<?xml version="1.0" encoding="utf-8"?><!--Generator: Adobe Illustrator 28.3.0, SVG Export Plug-In . SVG Version: 6.00 Build 0)--><svg version="1.1" id="Capa_1" xmlns="http://www.w3.org/2000/svg" x="0px" y="0px" viewBox="0 0 290.05 293.1" style="enable-background:new 0 0 290.05 293.1" xml:space="preserve"><style>.st0{fill:#020203;}
	.st1{fill:#FFFFFF;}
	.st2{fill:#020203;stroke:#020203;stroke-miterlimit:10;}
	.st3{fill:#151C32;}</style><path d="M87 252v30c0 4-4 7-6 11-2-3-4-7-4-11l-1-24c1-5-2-7-7-7-24-1-24-1-25-25 0-6-2-8-8-8H7l-7-6c2-2 5-5 7-5h29c6 0 8-2 8-8v-25H10c-3 0-7-4-10-6l11-5h26c2 0 4-5 7-7v-1c1-24 1-24-23-24l-15-1c-2 0-4-4-6-6 2-1 4-4 6-4h29c6 0 9-3 9-9V87H11c-4 0-7-4-11-6l10-5h11c7-1 16 2 20-2 4-3 2-13 3-19 1-3 4-5 6-6l6-1c21 0 21 0 21-20V10c0-3 3-6 4-9 2 3 6 6 6 9v30c0 6 2 9 8 8h25l1-37c0-4 3-7 5-11l6 10v31c0 5 2 8 8 7 30-1 24 6 25-24V10c0-3 3-7 5-10 2 3 5 6 5 10l1 27v10c32 5 32 5 32-25V8l6-8c2 3 5 5 5 8v39l4 1c7 1 16-1 20 2 4 4 2 13 4 20 0 2 4 6 7 6h29c2 0 5 3 7 5-3 2-5 6-8 6h-35v33h29c5 0 14 4 13 5 0 8-8 5-13 6h-29v32l33 1c3 0 7 3 10 5-3 2-7 5-10 5h-33v33h21c8 1 21-5 21 6 0 10-14 4-21 5h-22v19c0 13-1 14-14 14h-13v29c0 4-4 8-5 12l-6-13v-28h-26c-2 0-6 4-6 7v21c-1 4 2 12-6 12-2 0-5-8-5-12v-21c0-5-2-7-8-7-25-1-25-1-25 25 0 5-4 15-5 15-10-1-6-10-6-15v-24H87zm-32-14 9 2h161c9 0 10-5 10-12l-1-97 1-62c0-5 0-10-8-10H63c-6 0-8 2-8 8v171z"/><path d="M213 149v55c0 9-3 12-11 12H89c-8 0-10-3-10-11V93c0-8 2-11 10-11h114c7 0 10 3 10 10v57zm-9 58 1-6V99c0-8-4-9-10-8H95l-7 1v115h116z"/></svg>