<?xml version="1.0" encoding="utf-8"?><!--Generator: Adobe Illustrator 28.3.0, SVG Export Plug-In . SVG Version: 6.00 Build 0)--><svg version="1.1" id="Capa_1" xmlns="http://www.w3.org/2000/svg" x="0px" y="0px" viewBox="0 0 424.8 365.53" style="enable-background:new 0 0 424.8 365.53" xml:space="preserve"><style>.st0{fill:#020203;}
	.st1{fill:#FFFFFF;}
	.st2{fill:#020203;stroke:#020203;stroke-miterlimit:10;}
	.st3{fill:#151C32;}</style><path class="st1" d="M0 282v-56c0-2 0-3 2-4l159-118 2-1 43 48L340 44l-20-25L425 0l-36 105-19-23-170 135-44-50L0 282zM407 366h-68V157l2-3 21-17c1-2 2-2 4-1l39 18c2 1 2 3 2 4v208zM294 191v174h-68V248l2-4 65-52 1-1z"/><path class="st1" d="M181 365h-68V251c0-3 1-4 2-5l42-31 1 2 22 25 1 4 1 117-1 2zM0 365v-33l1-2 66-49h1v84H0z"/></svg>