<?xml version="1.0" encoding="utf-8"?>
<!-- Generator: Adobe Illustrator 28.3.0, SVG Export Plug-In . SVG Version: 6.00 Build 0)  -->
<svg version="1.1" id="Capa_1" xmlns="http://www.w3.org/2000/svg" xmlns:xlink="http://www.w3.org/1999/xlink" x="0px" y="0px"
	 viewBox="0 0 339.74 285.84" style="enable-background:new 0 0 339.74 285.84;" xml:space="preserve">
<style type="text/css">
	.st0{fill:#020203;}
	.st1{fill:#FFFFFF;}
	.st2{fill:#020203;stroke:#020203;stroke-miterlimit:10;}
	.st3{fill:#151C32;}
</style>
<g>
	<path class="st3" d="M190.74,144c11.75,0,23.49,0,35.24,0c3.44,0,4.8,1.39,4.81,4.86c0,1.03,0.02,2.06,0,3.09
		c-0.05,2.42-1.62,4.07-4.04,4.25c-0.48,0.04-0.97,0.02-1.45,0.02c-23.07,0-46.14,0-69.21,0c-4.26,0-5.59-1.36-5.58-5.69
		c0.01-5.73,0.8-6.53,6.45-6.53C168.21,144,179.48,144,190.74,144z"/>
	<path class="st3" d="M190.8,106.91c11.69,0,23.38,0,35.07,0c3.57,0,4.91,1.36,4.92,4.93c0,0.91,0.01,1.82,0,2.73
		c-0.02,2.96-1.47,4.5-4.46,4.5c-21.62,0.01-43.25-0.01-64.87-0.02c-2.18,0-4.36,0.06-6.54,0.02c-2.82-0.06-4.36-1.63-4.41-4.41
		c-0.02-1.09-0.01-2.18,0-3.27c0.04-2.95,1.55-4.47,4.49-4.47C166.94,106.91,178.87,106.91,190.8,106.91z"/>
	<path class="st3" d="M190.74,218.06c11.75,0,23.49,0,35.24,0c3.44,0,4.8,1.39,4.81,4.86c0,1.03,0.02,2.06,0,3.09
		c-0.05,2.42-1.62,4.07-4.04,4.25c-0.48,0.04-0.97,0.02-1.45,0.02c-23.07,0-46.14,0-69.21,0c-4.26,0-5.59-1.36-5.58-5.69
		c0.01-5.73,0.8-6.53,6.45-6.53C168.21,218.06,179.48,218.06,190.74,218.06z"/>
	<path class="st3" d="M190.8,180.98c11.69,0,23.38,0,35.07,0c3.57,0,4.91,1.36,4.92,4.93c0,0.91,0.01,1.82,0,2.73
		c-0.02,2.96-1.47,4.5-4.46,4.5c-21.62,0.01-43.25-0.01-64.87-0.02c-2.18,0-4.36,0.06-6.54,0.02c-2.82-0.06-4.36-1.63-4.41-4.41
		c-0.02-1.09-0.01-2.18,0-3.27c0.04-2.95,1.55-4.47,4.49-4.47C166.94,180.98,178.87,180.98,190.8,180.98z"/>
	<path class="st3" d="M169.82,50.23c-10.24,0-20.47,0.08-30.71-0.03c-6.65-0.07-12-5.73-12.23-12.66
		c-0.28-8.16,5.14-13.84,13.3-13.93c1.51-0.02,3.03,0,4.54,0c5.84,0,9.27-3.18,9.57-9.05c0.2-3.86,1.52-7.16,4.18-9.96
		c4.19-4.4,11.31-5.82,17.49-3.46c5.54,2.12,9.23,7.48,9.38,13.66c0.13,5.02,3.48,8.49,8.54,8.78c3.07,0.18,6.21-0.06,9.2,0.51
		c5.57,1.07,9.24,6.01,9.62,11.69c0.54,8.1-4.68,13.21-10.58,14.27c-0.89,0.16-1.81,0.18-2.71,0.18
		C189.55,50.23,179.69,50.23,169.82,50.23z M169.9,8.42c-3.31-0.03-6.02,2.62-6.03,5.9c-0.02,3.26,2.72,6,5.98,5.98
		c3.22-0.01,6.01-2.82,5.99-6.03C175.81,11.14,173.08,8.45,169.9,8.42z"/>
	<path class="st3" d="M120.95,189.95c3.54-3.6,7.04-7.17,10.55-10.73c1.66-1.68,3.32-3.35,5-4.99c1.65-1.61,4.28-1.62,5.87-0.06
		c1.53,1.5,1.65,3.91,0.04,5.55c-6.97,7.05-14.01,14.05-21.02,21.06c-0.16,0.16-0.39,0.25-0.92,0.6
		c-3.84-3.97-7.72-7.94-11.56-11.95c-1.67-1.74-1.65-4.36-0.07-5.88c1.56-1.51,4.21-1.43,5.9,0.22
		C116.75,185.73,118.75,187.75,120.95,189.95z"/>
	<path class="st3" d="M120.84,152.97c4.71-4.76,9.22-9.31,13.73-13.86c0.77-0.77,1.51-1.57,2.32-2.29c1.46-1.29,3.89-1.21,5.3,0.12
		c1.58,1.49,1.94,3.92,0.5,5.38c-7.08,7.18-14.25,14.28-21.39,21.41c-0.12,0.12-0.3,0.2-0.8,0.52c-1.34-1.44-2.69-2.97-4.12-4.43
		c-2.41-2.46-4.88-4.87-7.3-7.32c-1.84-1.86-1.92-4.28-0.26-5.98c1.6-1.64,4.16-1.54,5.96,0.27
		C116.75,148.75,118.67,150.75,120.84,152.97z"/>
	<path class="st3" d="M120.7,113.43c4.85-4.9,9.41-9.5,13.97-14.1c0.77-0.77,1.51-1.58,2.35-2.27c1.71-1.4,3.91-1.14,5.52,0.57
		c1.31,1.39,1.43,3.7,0.03,5.11c-7.02,7.09-14.1,14.13-21.16,21.19c-0.17,0.17-0.38,0.29-0.69,0.53c-4.06-4.07-8.15-8.1-12.14-12.24
		c-1.37-1.42-1.16-3.97,0.16-5.31c1.38-1.41,3.5-1.68,5.1-0.42c1.56,1.23,2.96,2.66,4.37,4.06
		C119.05,111.39,119.78,112.36,120.7,113.43z"/>
	<path class="st3" d="M119.45,238.71c-4.13-4.14-8.23-8.16-12.21-12.3c-1.52-1.58-1.21-4.17,0.38-5.54
		c1.65-1.42,4.19-1.24,5.72,0.36c1.95,2.05,3.93,4.08,6.3,6.53c4.14-4.32,8.07-8.41,12-12.5c1.09-1.13,2.16-2.28,3.28-3.38
		c1.88-1.84,4.51-1.92,6.16-0.22c1.54,1.59,1.37,4.19-0.45,6.01c-3.08,3.08-6.2,6.12-9.29,9.19
		C127.43,230.74,123.55,234.62,119.45,238.71z"/>
	<path class="st3" d="M270.31,129.21c-0.01-10.64-0.02-21.28-0.02-31.93c0-14.96,0.01-29.92,0.1-44.88
		c0.07-11.79-9.21-20.31-20.04-20.07c-9.02,0.2-18.05,0.04-27.08,0.04c-0.58,0-1.17,0.06-1.89,0.11c0,0.8,0.01,1.45,0,2.11
		c-0.2,12.48-10.15,22.73-22.62,22.84c-19.32,0.17-38.65,0.12-57.97,0.01c-9.58-0.06-18.33-6.62-21.18-15.71
		c-0.92-2.95-1.24-6.09-1.86-9.31c-0.11-0.01-0.46-0.05-0.82-0.05c-9.57,0-19.14-0.01-28.72,0.01c-0.96,0-1.95,0.05-2.89,0.23
		c-9.61,1.86-15.97,9.58-15.97,19.43c0.01,37.14,0.04,74.27,0.04,111.41c0,34.35-0.05,68.7-0.04,103.05
		c0,10.73,8.51,19.31,19.23,19.32c5.5,0.01,10.99,0.01,16.49,0.01v0.01h145.62c10.88,0,19.7-8.82,19.7-19.7V129.21H270.31z
		 M195.61,263.47c-30.14,0-60.31,0-90.54,0c-4.83,0-9.66,0-14.5,0V80.62h158.5c0,16.24,0,32.44,0,48.59c0,18.35,0,36.64,0,54.85
		v79.42H195.61z"/>
</g>
</svg>
