<?xml version="1.0" encoding="utf-8"?><!--Generator: Adobe Illustrator 28.3.0, SVG Export Plug-In . SVG Version: 6.00 Build 0)--><svg version="1.1" id="Capa_1" xmlns="http://www.w3.org/2000/svg" x="0px" y="0px" viewBox="0 0 386.75 269.83" style="enable-background:new 0 0 386.75 269.83" xml:space="preserve"><style>.st0{fill:#020203;}
	.st1{fill:#FFFFFF;}
	.st2{fill:#020203;stroke:#020203;stroke-miterlimit:10;}
	.st3{fill:#151C32;}</style><path class="st0" d="M0 0v270h387V0H0zm110 248c0 3-2 5-4 5H19c-2 0-4-2-4-5v-2c0-3 2-5 4-5h87c2 0 4 2 4 5v2zm217 0c0 3-3 5-5 5H124c-3 0-5-2-5-5v-2c0-3 2-5 5-5h198c2 0 5 2 5 5v2zm48-31c0 11-3 14-14 14H27c-11 0-15-3-15-15V27c0-11 3-14 14-14h334c11 0 15 2 15 14v190z"/><path class="st0" d="M192 47c-40 1-72 34-71 75 0 41 33 75 72 75 40 0 74-35 73-76 0-42-33-74-74-74zm-22 115V82l66 40-66 40z"/></svg>