<?xml version="1.0" encoding="utf-8"?>
<!-- Generator: Adobe Illustrator 28.3.0, SVG Export Plug-In . SVG Version: 6.00 Build 0)  -->
<svg version="1.1" id="Capa_1" xmlns="http://www.w3.org/2000/svg" xmlns:xlink="http://www.w3.org/1999/xlink" x="0px" y="0px"
	 viewBox="0 0 326.96 311.44" style="enable-background:new 0 0 326.96 311.44;" xml:space="preserve">
<style type="text/css">
	.st0{fill:#FFF;}
	.st1{fill:#FFFFFF;}
	.st2{fill:#FFF;stroke:#FFF;stroke-miterlimit:10;}
	.st3{fill:#FFF;}
</style>
<g>
	<g>
		<path class="st0" d="M0,180.06c0.18-1.88,0.48-3.76,0.54-5.64c0.81-25.63,1.55-51.26,2.41-76.88C3.22,89.51,8.17,84,15.98,82.55
			c6.42-1.19,12.85,2.25,15.64,9.39c1.83,4.67,3.29,9.82,3.37,14.79c0.34,20.42,0.42,40.86-0.11,61.27
			c-0.23,8.79,2.42,15.58,8.64,21.62c11.91,11.55,23.52,23.42,35.26,35.16c0.23,0.23,0.44,0.46,0.68,0.67
			c1.87,1.61,3.73,3.53,6.38,1.45c2.29-1.8,2.86-6.48,1.13-8.74c-0.58-0.75-1.31-1.39-1.99-2.07
			c-11.96-11.96-23.93-23.92-35.88-35.89c-4.36-4.37-5.52-8.2-3.59-11.86c2.17-4.12,8.19-7.13,13.13-5.84
			c2.96,0.77,6.33,2.11,8.28,4.29c10.83,12.12,23.18,22.55,35.63,32.85c7.8,6.46,11.6,14.67,11.71,24.46
			c0.27,22.34,0.16,44.68,0.19,67.03c0.01,6.69,0,13.38,0,20.27c-19.23,0-38.21,0-57.57,0c0-1.2,0-2.33,0-3.46
			c0-14.47,0.07-28.94-0.09-43.41c-0.02-1.66-0.88-3.72-2.05-4.91c-13.07-13.26-26.14-26.53-39.49-39.5
			C8.01,213.09,1.7,205.72,0,195.39C0,190.28,0,185.17,0,180.06z"/>
	</g>
	<g>
		<path class="st0" d="M251.24,87.99c-0.25,48.61-39.68,87.81-88.13,87.6c-48.32-0.21-87.65-39.8-87.41-88
			C75.94,38.84,115.52-0.34,164.15,0C212.33,0.35,251.48,39.9,251.24,87.99z M220.71,71.16c-1.49-0.55-1.85-0.76-2.23-0.81
			c-11.83-1.33-23.66-2.71-35.51-3.88c-2.13-0.21-3.15-0.99-3.98-2.86c-4.66-10.48-9.43-20.92-14.18-31.36
			c-0.36-0.79-0.83-1.54-1.44-2.64c-0.73,1.51-1.26,2.55-1.74,3.6c-4.6,10.16-9.15,20.34-13.87,30.45c-0.52,1.12-1.88,2.44-3,2.59
			c-8.01,1.07-16.05,1.85-24.08,2.75c-4.45,0.5-8.9,1.04-13.89,1.63c1.31,1.31,2.1,2.15,2.95,2.93c7.22,6.6,14.22,13.48,21.78,19.68
			c4.04,3.31,4.87,6.41,3.64,11.38c-2.65,10.7-4.57,21.57-6.87,32.79c1.32-0.69,2.25-1.15,3.16-1.67
			c9.79-5.56,19.63-11.06,29.34-16.76c2.05-1.2,3.48-1.09,5.45,0.06c9.73,5.67,19.55,11.19,29.34,16.76
			c0.86,0.49,1.76,0.91,3.04,1.57c-2.58-12.44-5.01-24.4-7.57-36.33c-0.47-2.2-0.14-3.68,1.64-5.26c8.35-7.41,16.55-15,24.83-22.5
			C218.32,72.58,219.29,72.1,220.71,71.16z"/>
	</g>
	<g>
		<path class="st0" d="M270.06,311.44c-19.23,0-38.13,0-57.23,0c-0.1-0.44-0.3-0.93-0.3-1.41c0.01-28.52-0.09-57.04,0.12-85.56
			c0.07-10.03,3.92-18.41,11.95-25.01c12.4-10.2,24.66-20.59,35.34-32.71c4.36-4.95,11.22-5.83,16.65-2.96
			c6.45,3.42,7.6,9.7,2.59,15.01c-3.5,3.72-7.2,7.25-10.81,10.86c-9.1,9.11-18.27,18.15-27.24,27.39c-1.24,1.27-2.19,3.6-1.98,5.28
			c0.22,1.83,1.58,4.27,3.12,4.97c1.2,0.55,3.88-0.69,5.13-1.92c12.75-12.53,25.33-25.23,37.97-37.88
			c4.69-4.69,6.74-10.22,6.65-16.95c-0.26-21.39-0.44-42.78-0.02-64.16c0.1-5.33,1.73-11.03,4.11-15.84
			c5.07-10.28,18.13-11.1,24.96-1.83c1.65,2.24,2.66,5.41,2.8,8.21c0.76,15.84,1.17,31.69,1.68,47.53
			c0.47,14.57,0.79,29.15,1.38,43.71c0.45,10.99-3.29,20.08-11.11,27.79c-14.63,14.41-29.05,29.04-43.64,43.5
			c-1.57,1.56-2.18,3.1-2.16,5.29c0.09,14.37,0.05,28.73,0.05,43.1C270.06,309,270.06,310.14,270.06,311.44z"/>
	</g>
</g>
</svg>
