<?xml version="1.0" encoding="utf-8"?><!--Generator: Adobe Illustrator 28.3.0, SVG Export Plug-In . SVG Version: 6.00 Build 0)--><svg version="1.1" id="Capa_1" xmlns="http://www.w3.org/2000/svg" x="0px" y="0px" viewBox="0 0 349.12 349.21" style="enable-background:new 0 0 349.12 349.21" xml:space="preserve"><style>.st0{fill:#020203;}
	.st1{fill:#FFFFFF;}
	.st2{fill:#020203;stroke:#020203;stroke-miterlimit:10;}
	.st3{fill:#151C32;}</style><path class="st1" d="M191 349h-21l-10-1A168 168 0 0 1 29 106c2-2 2-3 0-5L4 77c-7-7-5-16 4-19l34-12 4-4L58 8c3-9 12-11 19-4l24 25c2 2 3 2 5 1 41-20 85-24 129-9 61 22 98 66 111 130 2 6 2 13 3 19v21c-1 6-1 13-3 19-11 67-65 123-132 136l-23 3zM124 84a112 112 0 1 1-40 40h-3l-17 3c-5 1-9 1-13-4l-4-5a148 148 0 0 0 238 167c54-54 58-137 11-197-47-59-124-68-178-41l4 3c5 4 7 9 5 16l-3 18zm0 25 24 24c1 2 2 1 4 0a56 56 0 1 1 23 102c-41-4-63-48-42-83 2-2 1-3 0-5l-14-14-9-9a91 91 0 1 0 14-14zm26 55a35 35 0 0 0 57 40c12-14 11-34-1-47-10-12-30-15-42-7l3 3 21 20c3 3 4 7 2 11-1 4-4 6-8 7-4 0-7-1-9-4l-23-23zm-48-76 4-23-1-3-31-31-2-2-7 18 1 5 30 30 6 6zm-14 14L51 66l-2-1-20 7 1 1 32 32 3 1 23-4z"/></svg>