<?xml version="1.0" encoding="utf-8"?><!--Generator: Adobe Illustrator 28.3.0, SVG Export Plug-In . SVG Version: 6.00 Build 0)--><svg version="1.1" id="Capa_1" xmlns="http://www.w3.org/2000/svg" x="0px" y="0px" viewBox="0 0 371.41 405.24" style="enable-background:new 0 0 371.41 405.24" xml:space="preserve"><style>.st0{fill:#020203;}
	.st1{fill:#FFFFFF;}
	.st2{fill:#020203;stroke:#020203;stroke-miterlimit:10;}
	.st3{fill:#151C32;}</style><path class="st0" d="m188 0 12 1c21 3 38 11 53 25 16 15 28 32 32 54 7 38-3 71-32 97a94 94 0 0 1-53 25c-36 4-66-7-90-34a94 94 0 0 1-24-50c-5-37 5-67 32-92 14-12 29-21 47-24l16-2h7z"/><path class="st0" d="M186 405H71c-13 0-26-2-37-8a60 60 0 0 1-33-45 262 262 0 0 1 8-91c5-19 13-36 25-50 13-15 30-23 49-25 7-1 13 1 19 5 9 6 19 13 29 18a118 118 0 0 0 120-6l24-15c3-2 6-2 10-2 28 2 48 15 62 39 9 14 14 30 18 47 5 23 7 48 6 72-2 32-22 53-49 59-9 2-17 2-26 2H186z"/></svg>