<?xml version="1.0" encoding="utf-8"?><!--Generator: Adobe Illustrator 28.3.0, SVG Export Plug-In . SVG Version: 6.00 Build 0)--><svg version="1.1" id="Capa_1" xmlns="http://www.w3.org/2000/svg" x="0px" y="0px" viewBox="0 0 437.04 393.83" style="enable-background:new 0 0 437.04 393.83" xml:space="preserve"><style>.st0{fill:#020203;}
	.st1{fill:#020203;}
	.st2{fill:#020203;stroke:#020203;stroke-miterlimit:10;}
	.st3{fill:#020203;}</style><path class="st2" d="m293 349-25-39c-2-2-7-4-11-4a4158 4158 0 0 0-86 2l-26 41h148zM124 117c-8 0-14 5-14 13-1 9 4 15 14 15 9 1 13-5 15-14-2-8-6-14-15-14z"/><path class="st2" d="M157 176c12 8 17 2 22-8l8-14c4-6 2-10-4-13-11-8-12-11 0-18 9-5 7-12 2-17s-6-15-11-20l-9 5c-1 0-4 0-6-2-2 0-2-1-3-2-8 3-9 1-10-10 0-8-4-12-10-11-11 3-25-7-33 7l-1 2c-2 16-2 15-16 10-3-1-11 2-12 4-4 11-20 18-11 32l2 2c11 8 12 10 0 18-6 4-8 8-3 14 7 8 6 24 22 25l2-1c14-6 14-6 17 9 0 3 3 6 5 8 1 1 6-1 6-1 0-10 3-22-2-28-6-7-17-14-28-4l-6-11c15-13 15-27-1-41l7-11c17 9 30 1 35-19h11c3 20 17 28 35 19l6 12c-15 11-15 27 0 40l-6 11c-19-9-34 1-33 20 0 5 3 13 6 13 8 1 8-6 8-12 0-8 4-12 11-8z"/><path class="st2" d="M146 132c0-12-10-22-22-22-11 0-21 10-22 21 0 12 10 22 22 22 12 1 22-9 22-21zm-22 13c-10 0-15-6-14-15 0-8 6-13 14-13 9 0 13 6 15 14-1 9-6 15-15 14z"/><path class="st2" d="M422 62c0 11 3 13 15 9V27C427 7 411 0 389 1H52C29 0 11 6 1 27v252c9 21 25 28 48 27h106l-26 41c-1 2-6 2-9 3h-19c-18 1-32 14-35 31-1 8 2 12 10 12h280c15 0 19-5 13-20-6-14-19-25-36-23-19 2-29-5-36-21l-14-22 10-1h97c22 1 38-7 47-27V112c-12-3-15-1-15 11v110H97c-6 0-16-2-16 8s10 7 17 7h324v13c0 24-6 31-30 31H255l-213-1c-15 0-25-6-26-18v-25h26c6 0 14 1 13-8 0-2-8-6-12-6l-28-1V44c0-21 8-29 29-29h353c17 1 25 9 25 25v22zm-89 302c10 0 17 4 22 14H84l-2-4c7-4 14-9 21-9l230-1zm-153-58h77c4 0 9 2 11 4l25 39H145l26-41c1-2 6-2 9-2z"/><path class="st2" d="M394 119c7-4 8-8 4-15l-13-23c-11-18-11-18-28-8-11 6-15 4-15-9v-8c1-8-3-12-11-12h-26c-20 0-20 0-21 21 0 12-4 14-15 8l-7-4c-7-5-12-3-16 4l-10 19c-12 20-12 20 7 33 7 5 7 9 0 14-19 12-19 12-8 32l5 7c11 20 11 20 32 11 7-3 11-2 12 7 2 23 2 23 25 23h8c23 0 23 0 25-23 1-8 4-11 12-7l12 6h11c-1-4-1-9-4-11-4-4-9-6-13-8-16-9-32 0-32 18v10h-28c-4-33-13-38-43-24l-13-24c7-7 19-8 19-23 0-16-11-18-19-25l13-24c11 3 18 13 31 5 14-8 8-20 12-29h27c2 10-2 21 11 29 14 8 21-2 31-5l14 24c-19 12-19 12-19 21 0 13 14 29 28 30 2 0 6-2 7-4s0-6-1-8l-8-5-11-10 11-11 4-2z"/><path class="st2" d="M313 103c-16 0-29 13-29 29 0 15 13 28 29 29 16 0 29-13 29-29s-13-29-29-29zm0 43c-9 0-15-6-14-15 0-8 6-14 14-14 9 0 13 6 15 14-1 10-6 15-15 15zM174 86c18-7 37-9 57-4 1 1 3 0 4-1 3-2 4-6 3-9-1-1-2-3-4-3-8-2-19-5-27-5-6 0-34 9-48 15l-3 5v3l5-1c7-3 11-2 13 0z"/><path class="st2" d="m159 90 6 1 9-5c-2-2-6-3-13 0l-5 1 3 3zM167 205c15 6 46 15 47 15l20-4c3-1 6-8 5-8-2-2-5-6-8-5-21 4-40 0-58-10-3-1-8 2-12 2-1 6 3 9 6 10zM380 270a7 7 0 1 0-15 0 7 7 0 0 0 15 0z"/><circle class="st2" cx="331.6" cy="270.42" r="7.34"/></svg>