<?xml version="1.0" encoding="utf-8"?><!--Generator: Adobe Illustrator 28.3.0, SVG Export Plug-In . SVG Version: 6.00 Build 0)--><svg version="1.1" id="Capa_1" xmlns="http://www.w3.org/2000/svg" x="0px" y="0px" viewBox="0 0 325.34 325.33" style="enable-background:new 0 0 325.34 325.33" xml:space="preserve"><style>.st0{fill:#020203;}
	.st1{fill:#020203;}
	.st2{fill:#020203;stroke:#020203;stroke-miterlimit:10;}
	.st3{fill:#020203;}</style><path d="m191 260 7 26 1 5c0 1 1 2 3 2h36c4 0 6 2 6 6-1 15-12 26-27 26H110c-7 0-14-2-19-6-6-6-9-12-10-20 0-4 3-6 6-6h37c2 0 2-1 2-2l8-29v-2H27c-15 0-27-11-27-27V27C0 12 12 0 27 0h270c15 0 26 9 28 23v210c0 16-12 27-27 27H191zm123-43V27c0-9-7-16-16-16H27c-9 0-16 7-16 16v190h303zM11 228v5c0 9 7 16 17 16h273c9-2 15-10 13-21H11zm177 65v-1l-8-30c0-2-1-2-2-2h-31l-2 2-7 27-1 4h51zm-95 11 1 2c3 6 9 8 15 8h107c7 0 12-3 15-8l1-2H93z"/><path d="M161 206a92 92 0 1 1 0 0zm-9-12V98c0-4-2-6-6-6h-9c-2 0-3 1-3 2-4 7-12 11-20 8a16 16 0 0 1 3-31c7-1 14 2 17 9l2 1h10c10 0 17 7 17 17v97l10-1v-42c0-9 7-16 16-16l3-2c3-8 12-11 19-8a16 16 0 0 1-3 31c-7 1-14-3-17-9 0-2-1-2-2-1-3 0-5 2-5 5v40a81 81 0 0 0 40-131c-9-11-20-19-34-24v50c0 3 2 5 5 5h5l2-1c4-7 11-11 18-9 7 1 13 7 13 15 1 7-4 14-11 16s-15 0-19-7c-1-3-3-3-6-3-4 0-7 0-10-2-6-4-8-9-8-15V36c0-1 0-2-2-2l-7-1h-13v4c0 2 1 2 2 3 8 3 11 13 8 21-3 7-12 12-21 9-6-3-10-8-10-15-1-7 3-12 9-15l1-2v-4a81 81 0 0 0-16 154v-1a33600 33600 0 0 0 0-47c0-2-2-4-4-4-3-1-3 1-3 2a16 16 0 1 1 0-15c1 1 1 2 3 2 8 0 15 7 15 16v50l1 1 10 2zm65-91c3 0 5-3 5-5 0-3-2-6-5-6s-6 3-6 6 3 5 6 5zm-109 32c3 0 6-2 6-5s-3-5-5-5c-3 0-6 2-6 5s2 5 5 5zm49-81c0-3-2-5-5-5s-6 2-6 5 3 6 6 6 5-3 5-6zm-32 33c0-3-3-6-6-6s-5 3-5 6 2 5 5 5 6-2 6-5zm86 54a5 5 0 1 0-10 0 5 5 0 0 0 10 0z"/>
	</svg>