<?xml version="1.0" encoding="utf-8"?><!--Generator: Adobe Illustrator 28.3.0, SVG Export Plug-In . SVG Version: 6.00 Build 0)--><svg version="1.1" id="Capa_1" xmlns="http://www.w3.org/2000/svg" x="0px" y="0px" viewBox="0 0 388.69 276.58" style="enable-background:new 0 0 388.69 276.58" xml:space="preserve"><style>.st0{fill:#020203;}
	.st1{fill:#FFFFFF;}
	.st2{fill:#020203;stroke:#020203;stroke-miterlimit:10;}
	.st3{fill:#151C32;}</style><path d="M248 148v84c0 23-6 29-28 30h-78c-22-1-28-7-28-30V63c0-23 7-29 29-29h77c21 0 28 6 28 28v86zm-88-75v148h42V73h-42zM17 35h48v224H24c-7 0-7-4-7-9V35zM347 35v224h-42c-2 0-5-7-5-11l-1-114 1-91v-8h47z"/></svg>