<?xml version="1.0" encoding="utf-8"?>
<!-- Generator: Adobe Illustrator 28.3.0, SVG Export Plug-In . SVG Version: 6.00 Build 0)  -->
<svg version="1.1" id="Capa_1" xmlns="http://www.w3.org/2000/svg" xmlns:xlink="http://www.w3.org/1999/xlink" x="0px" y="0px"
	 viewBox="0 0 249.06 335.11" style="enable-background:new 0 0 249.06 335.11;" xml:space="preserve">
<style type="text/css">
	.st0{fill:#FFF;}
	.st1{fill:#FFFFFF;}
	.st2{fill:#FFF;stroke:#FFF;stroke-miterlimit:10;}
	.st3{fill:#FFF;}
</style>
<g>
	<path d="M65.86,250.97c0-5.75-0.15-11.23,0.06-16.7c0.11-2.76-0.71-4.56-2.92-6.3c-8.41-6.65-16.72-13.44-24.94-20.33
		C14.54,187.94,2.02,162.68,0,131.62c15.93,0,31.67,0,47.9,0c0-4.01-0.02-7.57,0-11.14c0.06-7.64,5.01-13.01,11.97-13.01
		c6.92,0,11.92,5.41,11.98,13.01c0.03,3.48,0,6.96,0,10.84c11.97,0,23.74,0,35.72,0c0,8.2,0,15.99,0,23.75
		c-15.04,2.61-23.59,11.27-23.73,23.93c-0.15,13.02,8.24,21.76,23.79,24.67c0,15.66,0,31.35,0,47.3
		C93.84,250.97,80.08,250.97,65.86,250.97z"/>
	<path d="M119.67,250.97c0-19.94,0-39.61,0-59.64c-3.97,0-7.68,0.05-11.39-0.01c-7.22-0.11-12.55-5.33-12.47-12.13
		c0.08-6.68,5.33-11.7,12.41-11.81c3.71-0.06,7.43-0.01,11.41-0.01c0-12.01,0-23.69,0-35.78c12.03,0,23.8,0,36.06,0
		c0-3.97-0.02-7.53,0-11.1c0.06-7.64,5-13.02,11.96-13.02c6.92-0.01,11.92,5.41,11.99,13c0.03,3.48,0,6.96,0,10.88
		c11.96,0,23.73,0,35.78,0c-0.41,11.87-2.75,22.87-6.85,33.5c-7.14,18.52-19.01,33.46-34.5,45.71
		c-7.43,5.88-14.77,11.89-21.96,18.06c-1.27,1.09-2.22,3.22-2.31,4.92c-0.28,5.71-0.11,11.45-0.11,17.45
		C139.75,250.97,129.98,250.97,119.67,250.97z"/>
	<path d="M107.63,23.75c0,9.94,0,19.62,0,29.6c-7.8,0.6-14.42,3.57-19.14,10.01c-3.45,4.7-4.97,10.01-4.61,15.82
		c0.75,12.11,9.83,20.76,23.69,22.45c0,5.77,0,11.58,0,17.59c-7.88,0-15.67,0-23.44,0c-2.57-15.01-11.24-23.59-23.9-23.74
		c-13.02-0.16-21.8,8.26-24.67,23.79c-11.53,0-23.09,0-34.65,0C1.53,74.31,44.24,21.47,107.63,23.75z"/>
	<path d="M107.78,263.23c15.59,0,31.19-0.02,46.78,0.01c4.1,0.01,6.61,1.94,7.05,5.23c0.48,3.59-2.25,6.6-6.31,6.71
		c-4.49,0.12-8.98,0.03-13.47,0.03c-26.7,0-53.39,0.03-80.09-0.06c-1.89-0.01-4.45-0.3-5.49-1.5c-1.32-1.53-2.14-4.22-1.87-6.24
		c0.38-2.85,2.92-4.16,5.86-4.17c9.86-0.01,19.71-0.01,29.57-0.01C95.81,263.23,101.79,263.23,107.78,263.23z"/>
	<path d="M136.81,311.36c-2.37,13.62-15.05,23.83-29.23,23.75c-13.97-0.07-26.64-10.45-28.81-23.75
		C98.05,311.36,117.31,311.36,136.81,311.36z"/>
	<path d="M107.49,299.17c-11.35,0-22.7,0.01-34.05-0.01c-4.76-0.01-7.49-2.18-7.55-5.9c-0.06-3.73,2.7-6.06,7.37-6.07
		c22.95-0.02,45.91-0.02,68.86,0c4.76,0,7.49,2.18,7.55,5.89c0.06,3.83-2.76,6.07-7.75,6.08
		C130.45,299.19,118.97,299.17,107.49,299.17z"/>
	<path d="M225.29,83.88c-1.72-14.52-10.98-23.74-23.64-23.95c-13.15-0.22-22.5,8.71-24.7,23.76c-7.76,0-15.56,0-23.71,0
		c0-5,0-9.83,0-14.67c0-4.85,0-9.71,0-15.09c-3.75,0-7.31,0.02-10.87,0c-7.62-0.05-13.04-5-13.07-11.92
		c-0.03-6.97,5.34-11.97,12.95-12.03c3.48-0.03,6.96,0,10.99,0c0-6.35,0-12.53,0-18.72c0-10.5,0.74-11.24,11.23-11.24
		c25.45,0,50.9,0,76.35,0c6.37,0,8.24,1.87,8.24,8.24c0.01,22.47,0.01,44.93,0,67.4c0,6.36-1.88,8.23-8.24,8.24
		C235.71,83.89,230.61,83.88,225.29,83.88z"/>
</g>
	<style>
		svg {
			fill: #FFF;
		}
	</style>
</svg>
