<?xml version="1.0" encoding="utf-8"?>
<!-- Generator: Adobe Illustrator 28.3.0, SVG Export Plug-In . SVG Version: 6.00 Build 0)  -->
<svg version="1.1" id="Capa_1" xmlns="http://www.w3.org/2000/svg" xmlns:xlink="http://www.w3.org/1999/xlink" x="0px" y="0px"
	 viewBox="0 0 275.36 328.02" style="enable-background:new 0 0 275.36 328.02;" xml:space="preserve">
<style type="text/css">
	.st0{fill:#FFF;}
	.st1{fill:#FFFFFF;}
	.st2{fill:#FFF;stroke:#FFF;stroke-miterlimit:10;}
	.st3{fill:#FFF;}
</style>
<g>
	<g>
		<path class="st0" d="M137.82,0c6.33-0.04,12,1.97,17.06,5.69c5.81,4.27,11.6,8.59,17.34,12.96c5.22,3.97,11.11,5.84,17.62,6.13
			c7.1,0.31,14.2,0.72,21.28,1.25c12.02,0.91,21.95,8.91,25.18,20.52c2.02,7.26,3.66,14.63,5.28,22c1.44,6.52,4.6,11.91,9.54,16.38
			c4.94,4.47,9.77,9.07,14.58,13.68c10.22,9.8,12.42,22.53,6.14,35.28c-2.55,5.17-4.98,10.42-7.82,15.43
			c-4.16,7.35-5.68,15.02-4.31,23.39c0.97,5.91,1.45,11.9,2.19,17.85c1.64,13.19-4.69,24.76-16.83,30.34
			c-6.45,2.96-12.98,5.75-19.54,8.44c-6.18,2.53-10.97,6.57-14.53,12.2c-3.5,5.53-7.13,10.99-10.74,16.45
			c-8.14,12.28-20.39,16.67-34.43,12.41c-6.37-1.93-12.77-3.75-19.11-5.75c-6.26-1.97-12.43-1.81-18.65,0.15
			c-6.66,2.1-13.34,4.16-20.07,6.02c-12.82,3.54-24.83-0.93-32.29-11.95c-3.73-5.51-7.41-11.07-10.92-16.73
			c-3.83-6.18-9.06-10.51-15.79-13.21c-5.97-2.39-11.86-4.98-17.76-7.55c-12.87-5.62-19.43-17.18-17.74-31.08
			c0.9-7.38,1.78-14.77,2.58-22.16c0.6-5.58-0.73-10.8-3.23-15.76c-3.09-6.14-6.24-12.26-9.29-18.42
			c-6.38-12.88-4.11-25.62,6.3-35.51c4.83-4.59,9.69-9.15,14.6-13.66c4.81-4.42,7.91-9.75,9.33-16.15c1.58-7.15,3.2-14.29,5.1-21.35
			c3.3-12.25,13.04-20.28,25.63-21.25c6.97-0.54,13.96-0.93,20.95-1.22c6.64-0.28,12.61-2.23,17.92-6.27
			c5.56-4.24,11.18-8.41,16.79-12.58C125.4,2.05,131.24-0.09,137.82,0z M137.83,230.63c52.19-0.19,94.52-42.63,94.46-94.7
			c-0.07-52.31-42.62-94.67-94.92-94.5C85.21,41.6,42.94,84.1,43.08,136.22C43.23,188.33,85.87,230.82,137.83,230.63z"/>
	</g>
	<g>
		<path class="st0" d="M219.54,248.01c0.64,1.19,1.09,1.93,1.45,2.7c7.86,16.89,15.74,33.77,23.54,50.69
			c0.51,1.1,0.45,2.45,0.66,3.68c-1.32,0.18-2.7,0.68-3.96,0.48c-8.32-1.33-16.66-2.63-24.91-4.34c-2.79-0.58-3.93,0.24-5.18,2.48
			c-4.11,7.36-8.38,14.63-12.7,21.88c-0.62,1.04-1.77,2.4-2.69,2.42c-0.85,0.02-2.03-1.44-2.54-2.5
			c-6.34-13.44-12.58-26.92-18.84-40.4c-0.27-0.58-0.49-1.19-0.84-2.03c3.47-0.41,6.76-0.55,9.94-1.21
			c10.85-2.27,19.24-8.26,25.34-17.48C212.32,259.11,215.75,253.81,219.54,248.01z"/>
	</g>
	<g>
		<path class="st0" d="M102.87,282.73c-4.09,8.78-7.93,17-11.76,25.23c-2.76,5.93-5.46,11.89-8.3,17.78
			c-0.47,0.97-1.54,2.25-2.37,2.28c-0.84,0.03-1.99-1.16-2.54-2.09c-4.42-7.44-8.78-14.91-13.04-22.45
			c-1.11-1.96-2.09-2.78-4.63-2.27c-8.69,1.75-17.46,3.14-26.22,4.56c-0.94,0.15-2.28-0.12-2.92-0.73c-0.45-0.43-0.29-1.9,0.07-2.69
			c8.2-17.7,16.47-35.38,24.74-53.05c0.03-0.07,0.16-0.09,0.57-0.31c2.27,3.46,4.74,6.86,6.83,10.48
			C71.96,274.49,84.38,283.17,102.87,282.73z"/>
	</g>
	<g>
		<path class="st0" d="M137.66,219.96c-46.24-0.04-83.93-37.77-83.9-84c0.02-46.29,37.65-83.87,83.97-83.86
			c46.32,0.01,83.9,37.6,83.91,83.92C221.63,182.24,183.86,220,137.66,219.96z M125.96,143c-5.8-5.83-11.9-12.12-18.17-18.24
			c-5.35-5.22-12.91-5.28-17.94-0.37c-5.07,4.96-5.1,12.82,0.19,18.19c9.03,9.19,18.15,18.3,27.33,27.33
			c5.55,5.46,12.91,5.47,18.4-0.03c16.54-16.6,33.03-33.26,49.46-49.97c5.36-5.44,5.41-13.18,0.4-18.19
			c-5.11-5.12-12.84-4.87-18.4,0.65c-4.41,4.38-8.7,8.89-13.14,13.25C144.82,124.71,135.49,133.73,125.96,143z"/>
	</g>
</g>
	<style>
		svg {
			fill: #FFF;
		}
	</style>
</svg>
