<?xml version="1.0" encoding="utf-8"?>
<!-- Generator: Adobe Illustrator 28.3.0, SVG Export Plug-In . SVG Version: 6.00 Build 0)  -->
<svg version="1.1" id="Capa_1" xmlns="http://www.w3.org/2000/svg" xmlns:xlink="http://www.w3.org/1999/xlink" x="0px" y="0px"
	 viewBox="0 0 448.04 319.51" style="enable-background:new 0 0 448.04 319.51;" xml:space="preserve">
<style type="text/css">
	.st0{fill:#FFF;}
	.st1{fill:#FFFFFF;}
	.st2{fill:#FFF;stroke:#FFF;stroke-miterlimit:10;}
	.st3{fill:#FFF;}
</style>
<g>
	<path d="M0,314.41c121.11-25.83,234.75-68.96,336.16-142.69c-15.37-14.43-30.59-28.72-46.53-43.69
		c52.96-16.02,105.18-31.82,158.41-47.93c-12.65,54.13-25.05,107.16-37.67,161.13c-16.28-15.24-31.89-29.86-48-44.93
		c-48.92,45.66-104.99,79.27-168.3,100.43C130.87,317.85,66.32,325.58,0,314.41z"/>
	<path d="M149.19,75.99c21.99,0,43.6,0,66,0c0,1.8,0,3.55,0,5.3c0,39.65-0.05,79.3,0.08,118.95c0.01,3.65-0.95,5.56-4.47,7.07
		c-18.29,7.88-36.43,16.1-54.64,24.16c-2.1,0.93-4.33,1.56-6.98,2.49C149.19,181.18,149.19,128.83,149.19,75.99z"/>
	<path d="M298.14,154.99c-15.59,10.2-30.68,20.06-46.55,30.44c0-62.45,0-123.75,0-185.43c21.9,0,43.76,0,66.28,0
		c0,1.73,0,3.34,0,4.95c0,30.64-0.09,61.28,0.11,91.92c0.03,4.14-1.31,5.76-5.13,6.87c-17.19,4.98-34.3,10.26-52.42,15.72
		C273.06,131.35,285.28,142.87,298.14,154.99z"/>
	<path d="M46.32,265.29c0-44.19,0-87.42,0-130.95c21.97,0,43.71,0,66.02,0c0.09,1.74,0.26,3.51,0.27,5.27
		c0.02,33.97-0.07,67.94,0.11,101.92c0.02,4.09-1.19,5.8-5.12,6.85C87.29,253.82,67.05,259.54,46.32,265.29z"/>
</g>
	<style>
		svg {
			fill: #FFF;
		}
	</style>
</svg>
